<svg width="100%" height="100%" xmlns="http://www.w3.org/2000/svg">
  <!-- Background -->
  <rect width="100%" height="100%" fill="white" />
  
  <!-- Flowers -->
  <g fill="#F4C542">
    <!-- Flower 1 -->
    <path d="M80 60 C 70 45, 55 80, 70 70 C 85 55, 90 80, 80 90 C 70 100, 55 75, 70 60 M 90 70 C 80 55, 65 80, 80 70 C 95 60, 110 50, 90 70 M 70 80 C 55 65, 40 85, 60 100 C 80 115, 70 85, 70 80 M 80 100 C 70 115, 90 105, 80 100 C 70 95, 50 115, 80 100" />
    
    <!-- Flower 2 -->
    <path d="M250 130 C 240 115, 225 150, 245 140 C 265 130, 280 140, 265 155 C 250 170, 225 130, 250 130 M 260 140 C 250 120, 235 145, 260 135 C 275 125, 290 120, 260 140 M 240 150 C 225 140, 210 160, 240 155 C 270 150, 255 135, 240 150 M 250 160 C 240 175, 260 155, 250 160 C 240 165, 220 175, 250 160" />
  </g>

  <!-- Heart Shapes -->
  <g fill="#FFC107">
    <!-- Heart 1 (Smaller) -->
    <path d="M150 200 Q 145 195 140 195 Q 135 195 135 200 Q 135 205 140 210 Q 145 215 150 210 Q 155 215 160 210 Q 165 205 165 200 Q 165 195 160 195 Q 155 195 150 200 Z" />
    
    <!-- Heart 2 (Smaller) -->
    <path d="M250 100 Q 245 95 240 95 Q 235 95 235 100 Q 235 105 240 110 Q 245 115 250 110 Q 255 115 260 110 Q 265 105 265 100 Q 265 95 260 95 Q 255 95 250 100 Z" />
    
    <!-- Heart 3 (Smaller) -->
    <path d="M350 300 Q 345 295 340 295 Q 335 295 335 300 Q 335 305 340 310 Q 345 315 350 310 Q 355 315 360 310 Q 365 305 365 300 Q 365 295 360 295 Q 355 295 350 300 Z" />
  </g>

  <!-- Sparkles -->
  <g fill="none" stroke="#FFD700" stroke-width="2">
    <line x1="150" y1="180" x2="160" y2="190" />
    <line x1="150" y1="190" x2="160" y2="180" />
    <circle cx="150" cy="185" r="2" fill="#FFD700" />
    
    <line x1="245" y1="90" x2="255" y2="100" />
    <line x1="245" y1="100" x2="255" y2="90" />
    <circle cx="245" cy="95" r="2" fill="#FFD700" />
    
    <line x1="350" y1="290" x2="360" y2="300" />
    <line x1="350" y1="300" x2="360" y2="290" />
    <circle cx="350" cy="295" r="2" fill="#FFD700" />
  </g>
</svg>
